# xmcd
#
# Track frame offsets:
#	150
#	14569
#	40264
#
# Disc length: 913 seconds
#
# Revision: 0
# Processed by: cddbd v1.5.2PL0 Copyright (c) Steve Scherf et al.
# Submitted via: audiograbber 1.83.01
#
DISCID=1e038f03
DTITLE=MayBee - Tyttöystävänpäivä [CDS-Promo)
DYEAR=2006
DGENRE=Pop
TTITLE0=Tyttöystävänpäivä
TTITLE1=Taksi
TTITLE2=Data Track
EXTD=TR.
EXTT0=
EXTT1=
EXTT2=
PLAYORDER=
